<svg width="25" height="25" viewBox="0 0 29 35" fill="none" xmlns="http://www.w3.org/2000/svg">
<path d="M22.1651 9.36871L22.1916 9.39516C22.5333 9.73687 22.5333 10.2909 22.1916 10.6326L15.3242 17.5L22.1916 24.3674C22.5333 24.7091 22.5333 25.2631 22.1916 25.6048L22.1651 25.6313C21.8234 25.973 21.2694 25.973 20.9277 25.6313L14.0603 18.7639L7.1929 25.6313C6.85119 25.973 6.29717 25.973 5.95546 25.6313L5.92901 25.6048C5.5873 25.2631 5.5873 24.7091 5.92901 24.3674L12.7964 17.5L5.92901 10.6326C5.5873 10.2909 5.5873 9.73687 5.92901 9.39516L5.95546 9.36871C6.29717 9.027 6.85119 9.027 7.1929 9.36871L14.0603 16.2361L20.9277 9.36871C21.2694 9.027 21.8234 9.027 22.1651 9.36871Z" fill="#B8B8B8"/>
</svg>
