<svg width="36" height="36" viewBox="0 0 36 36" fill="none" xmlns="http://www.w3.org/2000/svg">
<path d="M28.5764 25.0123C28.5764 27.8219 26.2932 30.1051 23.4836 30.1051H11.1995C8.38989 30.1051 6.10669 27.8219 6.10669 25.0123V12.7316C6.10669 9.922 8.38989 7.63879 11.1995 7.63879H15.636V6.17932H11.1995C7.58667 6.17932 4.64722 9.11877 4.64722 12.7316V25.0123C4.64722 28.6251 7.58667 31.5646 11.1995 31.5646H23.4802C27.093 31.5646 30.0325 28.6251 30.0325 25.0123V20.5758H28.573V25.0123H28.5764Z" fill="white"/>
<path d="M30.4699 6.47668C29.6872 5.69397 28.6584 5.3009 27.6296 5.3009C26.6008 5.3009 25.5754 5.69397 24.7893 6.47668L10.7243 20.5416C10.1467 21.1193 9.77072 21.8678 9.65793 22.6779L9.00852 27.2169C8.95383 27.6066 9.25803 27.9449 9.63742 27.9449C9.66819 27.9449 9.69895 27.9415 9.72971 27.9381L14.2688 27.2887C15.0788 27.1725 15.8274 26.7999 16.405 26.2223L30.4699 12.1573C32.0388 10.5885 32.0388 8.04553 30.4699 6.47668ZM12.4333 20.8971L24.3381 8.99231L27.9509 12.6085L16.0495 24.5133L12.4333 20.8971ZM14.0637 25.8429L10.6081 26.3351L11.1003 22.8795C11.1482 22.5548 11.2644 22.2404 11.4387 21.9669L14.9729 25.5011C14.6994 25.6788 14.3884 25.7985 14.0637 25.8429ZM29.4377 11.1217L28.9831 11.5763L25.3703 7.96008L25.8249 7.50549C26.3069 7.02356 26.9494 6.75696 27.633 6.75696C28.3166 6.75696 28.9592 7.02356 29.4411 7.50549C30.4358 8.50354 30.4358 10.1271 29.4377 11.1217Z" fill="white"/>
</svg>
